<svg xmlns="http://www.w3.org/2000/svg" xmlns:xlink="http://www.w3.org/1999/xlink" width="556" height="492" viewBox="0 0 556 492">
    <defs>
        <path id="a" d="M.983.452h28.123v28.192H.983z"/>
    </defs>
    <g fill="none" fill-rule="evenodd">
        <path fill="#EDF5F7" d="M224 133.553L103.368 166 76 61.445 196.632 29zM0 222.506L.85 305 83 284.66 62.296 207z"/>
        <path fill="#DEEDF2" d="M.488 238.625L0 322l76-20.237L56.554 224z"/>
        <path fill="#929FB4" d="M68.117 414.167s8.9 49.068 56.367 44.608c47.468-4.462 34.12-49.068 34.12-49.068l-90.487 4.46z"/>
        <path fill="#5C708E" d="M294.556 401.739c2.21 1.107 15.468 32.118 15.468 32.118l-45.641 29.197a242.269 242.269 0 0 1-89.702 26.732L126.622 492l-9.392-37.101 177.326-53.16z"/>
        <path fill="#DEEDF2" d="M184.575 219.598l-16.196-27.86 9.25-6.293s-17.874-4.739-33.716-19.031c-7.956-7.177-15.138-16.586-15.138-16.586s-3.147 4.476-5.105 6.53c-3.696 4.41-12.322-.531-10.046-7.875l10.092-19.402 11.907-4.973 46.969 41.444 19.845 42.11-17.862 11.936z"/>
        <path fill="#F3A992" d="M140.716 112.379l3.751-6.88a2.74 2.74 0 0 1 3.12-1.28s2.46-.063 2.485 1.977l.275 5.829-9.631.354zm41.312 18.881l-9.993-21.085c-5.367-10.776-7.685-11.425-15.022-14.73l-9.232-3.86c-3.653-1.626-7.937-.297-10.058 3.125l-17.738 30.199c-.104.166-1.527 3.301-.227 5.438 2.52 4.151 7.589 4.892 10.947 1.406 2.229-2.313 6.01-7.095 6.585-4.917l.599 3.206a4.914 4.914 0 0 0 1.045 1.969l10.885 12.478a58.774 58.774 0 0 0 14.4 11.976l16.946 9.773 16.787-10.32s-11.423-14.69-15.924-24.658z"/>
        <path fill="#FBE5A8" d="M118.976 117.985l59.721.358a1.93 1.93 0 0 0 1.873-2.426l-.993-3.765a1.93 1.93 0 0 0-1.954-1.433l-58.647 2.661a.871.871 0 0 0-.818.878l-.035 2.861a.874.874 0 0 0 .853.866"/>
        <path fill="#F3A992" d="M127.35 114.474a4.042 4.042 0 0 1 4.721-1.397l29.619 10.58-.186 7.99-32.262-10.965c-2.537-.92-3.483-4.024-1.893-6.208"/>
        <path fill="#C9E0E8" d="M17.619 239.387c1.67 0 38.219-2.196 38.219-2.196l9.581 96.729c1.04 8.769 9.847 14.37 18.204 11.58l132.515-48.663-44.436-125.477 28.894-17.853L325.39 270.018c28.916 28.686 36.858 66.95 9.604 102.078l-35.352 37.917c-25.031 22.862-60.504 44.727-94.57 51.631-53.395 10.82-88.996-.33-88.996-.33l-9.455-39.282L93.6 423.81c-18.777 2.567-38.057-.857-54.304-10.632-23.41-14.083-27.744-34.658-26.126-61.155l4.449-112.636z"/>
        <path fill="#D02C27" d="M299.756 264.672c0 34.384-28.024 62.258-62.592 62.258s-62.59-27.874-62.59-62.258c0-34.386 28.022-62.26 62.59-62.26 34.568 0 62.592 27.874 62.592 62.26"/>
        <path fill="#F3A992" d="M271.956 317.641s-11.624 34.065-57.234 25.698c0 0-36.069-6.575-34.577-33.766l9.05-3.58s-8.79-13.319-11.435-19.728c-3.576-8.666-3.576-20.02-3.576-20.02l5.31.58c5.697 1.843 9.243 7.526 8.401 13.464l-3.149 7.86s8.199 25.36 34.15 34.273c32.194 11.056 53.06-4.781 53.06-4.781"/>
        <path fill="#D02C27" d="M183.8 239.136l-2.626-3.155c-2.377-2.854-3.602-6.593-2.983-10.259.05-.28.105-.544.172-.788 3.139-11.46 16.245-16.703 28.37-20.715 13.146-4.349 30.324-6.931 46.474.129L183.8 239.136z"/>
        <path stroke="#B5DBDF" stroke-linecap="round" stroke-linejoin="round" d="M106.314 132.02l41.72-70.816"/>
        <path fill="#F3A992" d="M52.055 237.124s5.344-20.113-2.403-44.083c-7.165-22.173-7.76-31.117-16.814-30.932-9.055.186-14.229 48.714-14.229 48.714s-5.735-14.483-8.505-18.373c-2.408-3.378-4.206-5.838-7.353-6.363a1.153 1.153 0 0 0-1.318 1.3c.74 5.164 2.505 21.255 5.978 25.529 4.064 5 14.709 26.432 15.264 26.432.555 0 29.38-2.224 29.38-2.224"/>
        <path fill="#EDF5F7" d="M53.33 226.627L32 234.899a4.498 4.498 0 0 1-5.822-2.579L3.917 174.641a4.516 4.516 0 0 1 2.575-5.836l21.329-8.272a4.496 4.496 0 0 1 5.82 2.58l22.261 57.68a4.514 4.514 0 0 1-2.572 5.834"/>
        <path fill="#FFF" d="M37.75 186.578c0 6.457-5.222 11.69-11.662 11.69-6.443 0-11.665-5.233-11.665-11.69 0-6.456 5.222-11.69 11.665-11.69 6.44 0 11.662 5.234 11.662 11.69"/>
        <path fill="#B2E6E6" d="M48.587 139.568c0 3.741-3.025 6.773-6.757 6.773-3.732 0-6.755-3.032-6.755-6.773 0-3.741 3.023-6.773 6.755-6.773 3.732 0 6.757 3.032 6.757 6.773"/>
        <path fill="#FBE5A8" d="M319.927 119.322c0 8.698-7.035 15.748-15.71 15.748-8.68 0-15.71-7.05-15.71-15.748s7.03-15.748 15.71-15.748c8.675 0 15.71 7.05 15.71 15.748"/>
        <g transform="translate(361.423)">
            <mask id="b" fill="#fff">
                <use xlink:href="#a"/>
            </mask>
            <path fill="#B5DBDF" d="M15.045 28.644L.983 14.548 15.045.45l14.06 14.097z" mask="url(#b)"/>
        </g>
    </g>
</svg>
