<svg xmlns="http://www.w3.org/2000/svg" xmlns:xlink="http://www.w3.org/1999/xlink" width="556" height="492" viewBox="0 0 556 492">
    <defs>
        <path id="a" d="M0 .908h273.633v324.41H0z"/>
    </defs>
    <g fill="none" fill-rule="evenodd">
        <path fill="#BADDE6" d="M88 282h219v-26H88z"/>
        <path fill="#FFF" d="M112 275h170v-12H112z"/>
        <path fill="#E8F4F6" d="M175.695 198H134l7.305-12H183zM187.695 176H146l7.305-12H195zM307.787 198H199l7.215-12H315z"/>
        <path fill="#E20714" d="M320.787 176H212l7.213-12H328zM372.897 182.226h-14.778c-2.16 0-3.486-2.365-2.36-4.208l9.28-15.184a2.764 2.764 0 0 1 2.36-1.323h14.778c2.16 0 3.485 2.365 2.359 4.207l-9.28 15.185a2.763 2.763 0 0 1-2.36 1.323"/>
        <path fill="#E3F2F5" d="M356.93 210.276h-14.778c-2.16 0-3.485-2.364-2.36-4.207l9.281-15.184a2.764 2.764 0 0 1 2.359-1.323h14.778c2.16 0 3.485 2.364 2.359 4.207l-9.28 15.184a2.764 2.764 0 0 1-2.36 1.323M340.1 240.053h-14.778c-2.159 0-3.486-2.364-2.36-4.206l9.28-15.185a2.767 2.767 0 0 1 2.36-1.323h14.778c2.16 0 3.485 2.364 2.359 4.207l-9.28 15.184a2.764 2.764 0 0 1-2.36 1.323"/>
        <path fill="#FFF" d="M104.77 181.076H89.99c-2.16 0-3.485-2.364-2.36-4.207l9.281-15.184a2.764 2.764 0 0 1 2.359-1.323h14.778c2.159 0 3.485 2.364 2.359 4.207l-9.28 15.184a2.764 2.764 0 0 1-2.359 1.323"/>
        <path fill="#E8F4F6" d="M199.496 155.499h-41.412l7.255-11.77h41.413z"/>
        <path stroke="#D8EBF1" stroke-dasharray="5.094,5.094" stroke-width="2.042" d="M469 210.437c0 116.182-94.181 210.365-210.36 210.365-116.18 0-210.36-94.183-210.36-210.365C48.28 94.256 142.46.073 258.64.073 374.82.073 469 94.256 469 210.437z"/>
        <path fill="#FFCB00" d="M413.824 56.975c0 8.571-6.948 15.519-15.518 15.519-8.571 0-15.52-6.948-15.52-15.519 0-8.57 6.949-15.519 15.52-15.519 8.57 0 15.518 6.948 15.518 15.52"/>
        <path fill="#43BAC2" d="M311.517 416.78c0 8.57-6.948 15.518-15.518 15.518s-15.519-6.947-15.519-15.519c0-8.57 6.948-15.519 15.52-15.519 8.57 0 15.517 6.948 15.517 15.52"/>
        <g transform="translate(0 165.533)">
            <mask id="b" fill="#fff">
                <use xlink:href="#a"/>
            </mask>
            <path fill="#F8C0BB" d="M213.822 151.66c13.755-32.514 43.969-106.885 59.811-149.744a9.43 9.43 0 0 0-2.253-.786c-2.218-.475-4.511-.253-6.582 1.3L224.785 64.87s-3.617-19.119-19.12-7.234l-13.435 14.47s2.568-6.474.517-10.852c-2.54-5.425-14.469-5.168-24.287 9.818 0 0-6.645-10.916-16.75.91-.967 1.133-1.952 2.239-3.02 3.279-5.777 5.626-24.984 25.345-35.006 48.003-7.22 16.324-28.42 99.735-31.522 103.869C79.062 231.267 0 325.317 0 325.317l71.204-.905 36.783-80.508s84.474-41.753 105.835-92.244" mask="url(#b)"/>
        </g>
        <path fill="#F5A69B" d="M273.634 167.449c-15.843 42.859-46.057 117.23-59.812 149.743-21.361 50.491-105.835 92.245-105.835 92.245l-36.784 80.507 69.797-.887s27.198-62.84 36.093-75.107c26.273-36.24 53.893-48.671 68.77-80.25 0 0 14.335-32.093 15.242-34.812.906-2.717 15.401-28.99 15.401-28.99s-15.892-10.863-40.352 16.317l41.74-104.902c2.029-5.41.475-11.49-4.26-13.864"/>
    </g>
</svg>
