<svg xmlns="http://www.w3.org/2000/svg" xmlns:xlink="http://www.w3.org/1999/xlink" width="295" height="37" viewBox="0 0 295 37">
    <defs>
        <path id="a" d="M.66.427h4.748v22.66H.66z"/>
        <path id="c" d="M.66.888h4.748v4.964H.66z"/>
        <path id="e" d="M.538 8.232l.313.478a2.633 2.633 0 0 0 4.409.037l3.724-5.513L5.589.631l-5.05 7.6z"/>
        <path id="g" d="M.47.636V.64h.003c.657 4.246 3.526 7.773 7.412 9.397l3.944-3.925C8.763 5.775 6.297 3.817 5.645.64L.469.616l.002.02"/>
        <path id="i" d="M0 .771h185.474v32.202H0z"/>
    </defs>
    <g fill="none" fill-rule="evenodd">
        <g transform="translate(289 12.167)">
            <mask id="b" fill="#fff">
                <use xlink:href="#a"/>
            </mask>
            <path fill="#FF7268" d="M.66 23.087h4.749V2.915c0-1.373-1.064-2.488-2.375-2.488C1.722.427.66 1.542.66 2.915v20.172z" mask="url(#b)"/>
        </g>
        <g transform="translate(289 3)">
            <mask id="d" fill="#fff">
                <use xlink:href="#c"/>
            </mask>
            <path fill="#FF7268" d="M.66 3.37c0 1.37 1.06 2.482 2.369 2.482h.01c1.31 0 2.37-1.112 2.37-2.482 0-1.371-1.06-2.482-2.37-2.482h-.01c-1.31 0-2.37 1.11-2.37 2.482" mask="url(#d)"/>
        </g>
        <path d="M289 36h5V16h-5z"/>
        <path fill="#FF7268" d="M262.317 25.636v.004c.877 5.865 5.83 10.36 11.812 10.36 2.748 0 5.743-1.184 7.977-2.891 1.05-.8 1.171-2.362.276-3.339-.787-.861-2.078-.938-2.989-.214-1.01.801-2.655 1.615-5.186 1.615-3.38 0-6.202-2.03-6.894-5.531l18.074-.018v-.006h-23.071l.001.02"/>
        <path fill="#EC0000" d="M267.78 21.814c.854-3.053 3.413-4.941 6.207-4.941 3.127 0 5.354 1.646 5.969 4.94h-12.175zm6.284-9.524c-6.916 0-11.826 4.807-11.826 11.878 0 .434.065 1.305.077 1.448h23.072v-1.448c-.331-7.748-4.737-11.878-11.323-11.878z"/>
        <path fill="#FF7268" d="M259.124 35.06l-1.026-19.488c-.086-1.63-1.402-2.904-2.996-2.904h-.036a2.99 2.99 0 0 0-2.486 1.348l-9.078 13.717.31.478a2.619 2.619 0 0 0 4.393.035l5.647-8.393.8 15.208h4.472z"/>
        <path fill="#EC0000" d="M234.393 6.109c0 1.37 1.087 2.482 2.428 2.482h.01c1.34 0 2.429-1.113 2.429-2.482 0-1.372-1.089-2.483-2.428-2.483h-.011c-1.341 0-2.428 1.111-2.428 2.483"/>
        <path fill="#FF7268" d="M252.687 6.109c0 1.37 1.087 2.482 2.428 2.482h.011c1.341 0 2.428-1.113 2.428-2.482 0-1.372-1.087-2.483-2.428-2.483h-.01c-1.342 0-2.429 1.111-2.429 2.483"/>
        <g transform="translate(243 20)">
            <mask id="f" fill="#fff">
                <use xlink:href="#e"/>
            </mask>
            <path d="M.538 8.232l.313.478a2.633 2.633 0 0 0 4.409.037l3.724-5.513L5.589.631l-5.05 7.6z" mask="url(#f)"/>
        </g>
        <path fill="#EC0000" d="M248 27.874l-8.584-13.503A2.929 2.929 0 0 0 236.947 13c-1.566 0-2.858 1.254-2.942 2.853L233 35h4.387l.778-14.795 5.235 8.066a2.566 2.566 0 0 0 4.31.034l.29-.43z"/>
        <g transform="translate(261 25)">
            <mask id="h" fill="#fff">
                <use xlink:href="#g"/>
            </mask>
            <path d="M.47.636V.64h.003c.657 4.246 3.526 7.773 7.412 9.397l3.944-3.925C8.763 5.775 6.297 3.817 5.645.64L.469.616l.002.02" mask="url(#h)"/>
        </g>
        <g>
            <mask id="j" fill="#fff">
                <use xlink:href="#i"/>
            </mask>
            <path fill="#EC0000" d="M185.474 15.236c0 1.048-.128 2.32-.321 2.988-.834-.097-1.669-.127-2.662-.127-.867 0-1.732.064-2.598.19v13.607h-3.53V16c1.509-.509 4.042-.891 6.03-.891 1.091 0 2.312.03 3.081.127M161.8 22.164h7.955c0-2.605-1.41-4.131-3.849-4.131-2.502 0-3.817 1.43-4.106 4.131m11.324 2.926h-11.26c.449 2.83 2.117 4.197 5.261 4.197 1.925 0 3.881-.414 5.645-1.208-.128.92-.32 2.13-.545 3.178-1.604.73-3.305 1.016-5.197 1.016-5.902 0-8.757-3.242-8.757-8.677 0-4.737 2.214-8.487 7.827-8.487 5.036 0 7.218 3.274 7.218 7.28 0 .985-.065 1.778-.192 2.701m-21.238 3.116v-9.792c-.93-.19-1.89-.317-2.823-.317-3.496 0-5.162 2.162-5.162 5.785 0 3.243 1.314 5.532 4.458 5.532 1.41 0 2.566-.478 3.527-1.208m3.498-18.564v22.252h-3.242l-.191-2.037c-.9 1.495-2.277 2.416-4.587 2.416-4.234 0-7.057-3.05-7.057-8.39 0-5.596 3.016-8.774 8.95-8.774.93 0 1.795.094 2.629.254v-5.245c1.09-.381 2.342-.476 3.498-.476m-17.901 11.57v10.682h-3.529V21.815c0-2.512-.834-3.718-4.363-3.718-.834 0-1.827.095-2.79.254v13.543h-3.528V16c2.244-.543 4.715-.891 6.414-.891 5.903 0 7.796 2.256 7.796 6.103m-21.589 7.056v-9.981c-.739-.126-1.54-.19-2.535-.19-3.655 0-5.356 2.226-5.356 5.785 0 3.243 1.314 5.532 4.458 5.532 1.38 0 2.503-.446 3.433-1.146M119.423 16v15.894h-3.242l-.191-1.91c-.9 1.4-2.277 2.29-4.522 2.29-4.236 0-7.059-3.052-7.059-8.392 0-5.595 3.016-8.773 8.95-8.773 2.31 0 4.204.254 6.064.89m-18.927 13.288a8.048 8.048 0 0 0 2.757-.478c-.095.954-.224 2.034-.417 2.956-.96.381-1.988.508-2.983.508-3.431 0-5.613-1.557-5.613-5.436V10.15c1.091-.35 2.438-.508 3.529-.508v6.005h5.58c-.063 1.083-.159 2.069-.32 2.989h-5.26v7.79c0 2.064 1.026 2.86 2.727 2.86m-9.786-8.074v10.682h-3.529V21.815c0-2.512-.834-3.718-4.362-3.718-.835 0-1.828.095-2.79.254v13.543H76.5V16c2.245-.543 4.715-.891 6.416-.891 5.902 0 7.794 2.256 7.794 6.103m-21.589 7.056v-9.981c-.738-.126-1.54-.19-2.533-.19-3.657 0-5.358 2.226-5.358 5.785 0 3.243 1.315 5.532 4.459 5.532 1.38 0 2.502-.446 3.432-1.146M72.65 16v15.894h-3.24l-.193-1.91c-.897 1.4-2.277 2.29-4.522 2.29-4.236 0-7.059-3.052-7.059-8.392 0-5.595 3.016-8.773 8.952-8.773 2.308 0 4.202.254 6.062.89M40.602 31.193c.065-1.302.256-2.194.61-3.21 1.797.827 4.107 1.24 5.871 1.24 2.983 0 4.65-.954 4.65-2.83 0-1.842-1.217-2.7-4.233-4.004l-1.636-.7c-3.016-1.302-5.069-2.986-5.069-6.356 0-3.625 2.536-5.946 7.731-5.946 2.086 0 4.041.288 5.87.923-.095 1.27-.32 2.257-.64 3.178-1.732-.635-3.787-.921-5.26-.921-2.793 0-4.076 1.08-4.076 2.766 0 1.652 1.25 2.606 3.497 3.56l1.732.73c4.074 1.717 5.773 3.528 5.773 6.612 0 3.656-2.79 6.168-8.243 6.168-2.631 0-4.778-.383-6.577-1.21M24.48 15.522a7.309 7.309 0 0 0-.985-3.354L18.147 2.99A7.212 7.212 0 0 1 17.3.771l-.223.385a7.28 7.28 0 0 0 0 7.34l4.278 7.344a7.284 7.284 0 0 1 0 7.343l-.224.383a7.3 7.3 0 0 0-.846-2.218l-3.916-6.723-2.501-4.29a7.328 7.328 0 0 1-.846-2.22l-.223.383a7.28 7.28 0 0 0-.013 7.32l4.29 7.365a7.287 7.287 0 0 1 0 7.344l-.222.383a7.297 7.297 0 0 0-.847-2.22l-5.347-9.178a7.278 7.278 0 0 1-.986-3.99C3.951 17.004 0 20.152 0 23.795c0 5.07 7.646 9.178 17.078 9.178 9.431 0 17.077-4.109 17.077-9.178 0-3.644-3.95-6.791-9.675-8.273" mask="url(#j)"/>
        </g>
    </g>
</svg>
