<svg xmlns="http://www.w3.org/2000/svg" xmlns:xlink="http://www.w3.org/1999/xlink" width="152" height="136" viewBox="0 0 152 136">
    <defs>
        <filter id="a" width="133.8%" height="138.3%" x="-16.9%" y="-19.2%" filterUnits="objectBoundingBox">
            <feOffset dy="4" in="SourceAlpha" result="shadowOffsetOuter1"/>
            <feGaussianBlur in="shadowOffsetOuter1" result="shadowBlurOuter1" stdDeviation="4"/>
            <feColorMatrix in="shadowBlurOuter1" result="shadowMatrixOuter1" values="0 0 0 0 0.133333333 0 0 0 0 0.133333333 0 0 0 0 0.133333333 0 0 0 0.12 0"/>
            <feMerge>
                <feMergeNode in="shadowMatrixOuter1"/>
                <feMergeNode in="SourceGraphic"/>
            </feMerge>
        </filter>
        <path id="b" d="M27.956 34.186a9.34 9.34 0 0 1-1.17-.34 11.38 11.38 0 0 1-1.057-.436 1.167 1.167 0 1 1 1.014-2.102c.167.081.468.211.831.341.283.102.555.184.802.24.234.054.434.08.584.08 1.487 0 2.159-.474 2.159-1.3 0-.346-.279-.675-.903-1.02-.313-.171-1.317-.593-1.317-.593.11.054-1.037-.427-1.525-.69-1.356-.73-2.215-1.65-2.215-2.972 0-1.75 1.223-3.04 2.797-3.465v-1.614a1.167 1.167 0 1 1 2.333 0v1.554c.381.06.733.15 1.054.262.415.145.715.304.902.438a1.167 1.167 0 0 1-1.356 1.898 1.892 1.892 0 0 0-.316-.134c-.389-.136-.878-.22-1.477-.22-.898 0-1.604.554-1.604 1.28 0 .22.313.556.988.918.365.197 1.462.657 1.453.653-.107-.053.963.397 1.408.642 1.29.71 2.111 1.68 2.111 3.062 0 1.91-1.253 3.136-3.163 3.512v1.515a1.167 1.167 0 1 1-2.333 0v-1.509zM11.865 37.34v-4.667h-1.361a1.167 1.167 0 1 1 0-2.334h1.36v-4.667h-1.36a1.167 1.167 0 0 1 0-2.333h1.36v-4.667h-1.36a1.167 1.167 0 1 1 0-2.333h1.36V8.392a3.5 3.5 0 0 1 3.5-3.5h27.799a3.5 3.5 0 0 1 3.5 3.5v39.216a3.5 3.5 0 0 1-3.5 3.5H15.365a3.5 3.5 0 0 1-3.5-3.5v-7.936h-1.361a1.167 1.167 0 0 1 0-2.333h1.36zm2.333 0h.973a1.167 1.167 0 1 1 0 2.333h-.973v7.936c0 .645.522 1.167 1.167 1.167h27.798c.644 0 1.166-.522 1.166-1.167V8.392c0-.645-.522-1.167-1.166-1.167H15.365c-.645 0-1.167.522-1.167 1.167v7.946h.973a1.167 1.167 0 1 1 0 2.333h-.973v4.667h.973a1.167 1.167 0 1 1 0 2.333h-.973v4.667h.973a1.167 1.167 0 1 1 0 2.334h-.973v4.667z"/>
    </defs>
    <g fill="none" fill-rule="evenodd">
        <rect width="136" height="120" fill="#FFF" fill-rule="nonzero" filter="url(#a)" rx="4" transform="translate(8 4)"/>
        <use fill="#222" fill-rule="nonzero" transform="translate(48.504 20)" xlink:href="#b"/>
        <text fill="#767676" font-family="SantanderText-Regular, Santander Text" font-size="16" transform="translate(8 4)">
            <tspan x="38.544" y="98">Finanças</tspan>
        </text>
    </g>
</svg>
