<svg xmlns="http://www.w3.org/2000/svg" xmlns:xlink="http://www.w3.org/1999/xlink" width="152" height="136" viewBox="0 0 152 136">
    <defs>
        <filter id="a" width="133.8%" height="138.3%" x="-16.9%" y="-19.2%" filterUnits="objectBoundingBox">
            <feOffset dy="4" in="SourceAlpha" result="shadowOffsetOuter1"/>
            <feGaussianBlur in="shadowOffsetOuter1" result="shadowBlurOuter1" stdDeviation="4"/>
            <feColorMatrix in="shadowBlurOuter1" result="shadowMatrixOuter1" values="0 0 0 0 0.133333333 0 0 0 0 0.133333333 0 0 0 0 0.133333333 0 0 0 0.12 0"/>
            <feMerge>
                <feMergeNode in="shadowMatrixOuter1"/>
                <feMergeNode in="SourceGraphic"/>
            </feMerge>
        </filter>
        <path id="b" d="M26.833 37.235a8.425 8.425 0 0 1-1.106-.324c-.41-.15-.748-.299-.964-.405a1.167 1.167 0 1 1 1.028-2.095c.147.073.414.19.736.307.25.092.49.165.706.215.202.047.372.07.496.07 1.28 0 1.828-.394 1.828-1.093 0-.28-.228-.554-.761-.853-.274-.154-1.173-.538-1.179-.541.108.054-.931-.39-1.378-.635-1.25-.685-2.048-1.555-2.048-2.806 0-1.662 1.159-2.889 2.642-3.278V24.5a1.167 1.167 0 1 1 2.334 0v1.31c.373.085.72.206 1.04.356.357.168.6.326.832.509a1.167 1.167 0 1 1-1.442 1.834 1.798 1.798 0 0 0-.381-.23c-.367-.172-.816-.278-1.364-.278-.747 0-1.327.465-1.327 1.075 0 .162.258.444.835.76.323.177 1.31.599 1.305.596-.1-.05.865.362 1.271.59 1.193.668 1.954 1.585 1.954 2.889 0 1.723-1.075 2.86-2.723 3.263v1.331a1.167 1.167 0 1 1-2.334 0v-1.27zM28 7.058L7 13.674v4.985h42v-4.985L28 7.058zm23.333 5.76v7.007c0 .645-.522 1.167-1.166 1.167H5.833a1.167 1.167 0 0 1-1.166-1.167v-7.007c0-.509.33-.96.816-1.112l22.166-6.984c.229-.072.473-.072.702 0l22.166 6.984c.486.153.816.603.816 1.112zM7 44.344v4.66h42v-4.66H7zm-1.167-2.333h44.334c.644 0 1.166.522 1.166 1.166v6.994c0 .645-.522 1.167-1.166 1.167H5.833a1.167 1.167 0 0 1-1.166-1.167v-6.994c0-.644.522-1.166 1.166-1.166zm5.834-17.516a1.167 1.167 0 1 1 2.333 0v14a1.167 1.167 0 0 1-2.333 0v-14zm30.356 0a1.167 1.167 0 0 1 2.333 0v14a1.167 1.167 0 0 1-2.333 0v-14z"/>
    </defs>
    <g fill="none" fill-rule="evenodd">
        <rect width="135" height="119" x=".5" y=".5" fill="#FFF" stroke="#C00" filter="url(#a)" rx="4" transform="translate(8 4)"/>
        <use fill="#222" fill-rule="nonzero" transform="translate(48.504 20)" xlink:href="#b"/>
        <text fill="#767676" font-family="SantanderText-Regular, Santander Text" font-size="16" transform="translate(8 4)">
            <tspan x="21.24" y="98">Abrir Conta PJ</tspan>
        </text>
    </g>
</svg>
